REM DIRINDEX 1\4,1\2\5,1\2\6,1\3\7,1\3\8
REM DIRNAME folder01,folder02,folder03,folder04,folder05,folder06,folder07,folder08
TITLE ""
FILE "024_Day12_Check3_Sentences.mp3" MP3
  TRACK 01 AUDIO
    TITLE "0:"
    INDEX 01 00:00:00
  TRACK 02 AUDIO
    TITLE "4:cjc124_0760"
    INDEX 01 00:00:25
  TRACK 03 AUDIO
    TITLE "0:"
    INDEX 01 00:01:52
  TRACK 04 AUDIO
    TITLE "7:cjc124_0761"
    INDEX 01 00:02:22
  TRACK 05 AUDIO
    TITLE "0:"
    INDEX 01 00:04:46
  TRACK 06 AUDIO
    TITLE "8:cjc124_0762"
    INDEX 01 00:05:03
  TRACK 07 AUDIO
    TITLE "0:"
    INDEX 01 00:07:05
  TRACK 08 AUDIO
    TITLE "7:cjc124_0763"
    INDEX 01 00:07:41
  TRACK 09 AUDIO
    TITLE "0:"
    INDEX 01 00:09:73
  TRACK 10 AUDIO
    TITLE "8:cjc124_0764"
    INDEX 01 00:10:14
  TRACK 11 AUDIO
    TITLE "0:"
    INDEX 01 00:12:01
  TRACK 12 AUDIO
    TITLE "7:cjc124_0765"
    INDEX 01 00:12:38
  TRACK 13 AUDIO
    TITLE "0:"
    INDEX 01 00:14:43
  TRACK 14 AUDIO
    TITLE "8:cjc124_0766"
    INDEX 01 00:14:58
  TRACK 15 AUDIO
    TITLE "0:"
    INDEX 01 00:17:25
  TRACK 16 AUDIO
    TITLE "7:cjc124_0767"
    INDEX 01 00:17:63
  TRACK 17 AUDIO
    TITLE "0:"
    INDEX 01 00:20:39
  TRACK 18 AUDIO
    TITLE "8:cjc124_0768"
    INDEX 01 00:20:55
  TRACK 19 AUDIO
    TITLE "0:"
    INDEX 01 00:22:70
  TRACK 20 AUDIO
    TITLE "7:cjc124_0769"
    INDEX 01 00:23:32
  TRACK 21 AUDIO
    TITLE "0:"
    INDEX 01 00:25:58
  TRACK 22 AUDIO
    TITLE "8:cjc124_0770"
    INDEX 01 00:25:72
  TRACK 23 AUDIO
    TITLE "0:"
    INDEX 01 00:28:25
  TRACK 24 AUDIO
    TITLE "7:cjc124_0771"
    INDEX 01 00:28:62
  TRACK 25 AUDIO
    TITLE "0:"
    INDEX 01 00:31:61
  TRACK 26 AUDIO
    TITLE "8:cjc124_0772"
    INDEX 01 00:32:00
  TRACK 27 AUDIO
    TITLE "0:"
    INDEX 01 00:34:06
  TRACK 28 AUDIO
    TITLE "7:cjc124_0773"
    INDEX 01 00:34:43
  TRACK 29 AUDIO
    TITLE "0:"
    INDEX 01 00:36:31
  TRACK 30 AUDIO
    TITLE "8:cjc124_0774"
    INDEX 01 00:36:54
  TRACK 31 AUDIO
    TITLE "0:"
    INDEX 01 00:38:30
  TRACK 32 AUDIO
    TITLE "7:cjc124_0775"
    INDEX 01 00:38:65
  TRACK 33 AUDIO
    TITLE "0:"
    INDEX 01 00:41:24
  TRACK 34 AUDIO
    TITLE "8:cjc124_0776"
    INDEX 01 00:41:45
  TRACK 35 AUDIO
    TITLE "0:"
    INDEX 01 00:43:64
  TRACK 36 AUDIO
    TITLE "7:cjc124_0777"
    INDEX 01 00:44:28
  TRACK 37 AUDIO
    TITLE "0:"
    INDEX 01 00:46:51
  TRACK 38 AUDIO
    TITLE "8:cjc124_0778"
    INDEX 01 00:46:66
  TRACK 39 AUDIO
    TITLE "0:"
    INDEX 01 00:48:73
  TRACK 40 AUDIO
    TITLE "7:cjc124_0779"
    INDEX 01 00:49:37
  TRACK 41 AUDIO
    TITLE "0:"
    INDEX 01 00:50:72
  TRACK 42 AUDIO
    TITLE "8:cjc124_0780"
    INDEX 01 00:51:13
  TRACK 43 AUDIO
    TITLE "0:"
    INDEX 01 00:52:51
  TRACK 44 AUDIO
    TITLE "7:cjc124_0781"
    INDEX 01 00:53:15
  TRACK 45 AUDIO
    TITLE "0:"
    INDEX 01 00:55:57
  TRACK 46 AUDIO
    TITLE "8:cjc124_0782"
    INDEX 01 00:56:08
  TRACK 47 AUDIO
    TITLE "0:"
    INDEX 01 00:58:67
  TRACK 48 AUDIO
    TITLE "7:cjc124_0783"
    INDEX 01 00:59:30
  TRACK 49 AUDIO
    TITLE "0:"
    INDEX 01 01:01:72
  TRACK 50 AUDIO
    TITLE "8:cjc124_0784"
    INDEX 01 01:02:12
  TRACK 51 AUDIO
    TITLE "0:"
    INDEX 01 01:05:28
  TRACK 52 AUDIO
    TITLE "7:cjc124_0785"
    INDEX 01 01:05:66
  TRACK 53 AUDIO
    TITLE "0:"
    INDEX 01 01:08:60
  TRACK 54 AUDIO
    TITLE "8:cjc124_0786"
    INDEX 01 01:09:03
  TRACK 55 AUDIO
    TITLE "0:"
    INDEX 01 01:11:31
  TRACK 56 AUDIO
    TITLE "7:cjc124_0787"
    INDEX 01 01:11:70
  TRACK 57 AUDIO
    TITLE "0:"
    INDEX 01 01:13:28
  TRACK 58 AUDIO
    TITLE "8:cjc124_0788"
    INDEX 01 01:13:42
  TRACK 59 AUDIO
    TITLE "0:"
    INDEX 01 01:14:61
  TRACK 60 AUDIO
    TITLE "7:cjc124_0789"
    INDEX 01 01:15:21
  TRACK 61 AUDIO
    TITLE "0:"
    INDEX 01 01:18:06
  TRACK 62 AUDIO
    TITLE "8:cjc124_0790"
    INDEX 01 01:18:21
  TRACK 63 AUDIO
    TITLE "0:"
    INDEX 01 01:20:55
  TRACK 64 AUDIO
    TITLE "7:cjc124_0791"
    INDEX 01 01:21:25
  TRACK 65 AUDIO
    TITLE "0:"
    INDEX 01 01:23:58
  TRACK 66 AUDIO
    TITLE "8:cjc124_0792"
    INDEX 01 01:24:00
  TRACK 67 AUDIO
    TITLE "0:"
    INDEX 01 01:25:58
